<svg width="0" height="0" class="hidden">
  <symbol xmlns="http://www.w3.org/2000/svg" viewBox="0 0 568.034 568.034" id="github">
    <path d="M550.99 0H17.051C8.948 0 2.381 6.567 2.381 14.67v538.694c0 8.104 6.567 14.67 14.67 14.67h177.498v-.129c8.011-.092 14.149-4.577 14.431-12.166.728-19.725.214-39.492.214-58.562-14.296.667-27.944 2.473-41.438 1.695-29.762-1.714-52.632-14.413-64.493-43.556-7.026-17.265-17.613-32.032-34.101-41.886-3.079-1.842-5.771-4.554-8.127-7.308-3.079-3.592-2.503-7.282 2.362-8.268 4.908-.998 10.27-1.695 15.11-.79 19.009 3.568 32.154 15.49 42.216 31.347 19.896 31.371 50.521 40.974 84.976 26.487 1.921-.808 4.363-2.766 4.725-4.553 2.778-13.887 7.968-26.549 18.427-37.65-11.628-2.154-22.399-3.739-32.962-6.188-30.417-7.038-57.742-19.7-77.724-44.848-16.303-20.514-23.758-44.528-27.185-70.086-5.367-40.031-.563-77.503 26.928-109.493 1.389-1.616 2.142-4.927 1.524-6.94-6.885-22.497-5.833-44.805.991-67.051 3.581-11.683 4.578-12.265 16.5-10.637.729.098 1.438.281 2.161.404 23.898 3.954 44.468 15.526 64.731 27.95 2.724 1.671 6.873 2.711 9.866 1.983 48.397-11.744 96.702-11.695 145.093.043 2.809.679 6.561-.288 9.247-1.695 11.016-5.759 21.561-12.454 32.718-17.914 12.98-6.346 26.652-11.12 41.371-10.857 2.576.049 6.561 2.509 7.423 4.786 8.856 23.464 10.723 47.375 3.666 71.794-.753 2.607.367 6.322 1.769 8.892 6.965 12.779 16.689 24.572 21.096 38.127 13.434 41.316 8.538 82.229-9.749 121.06-16.757 35.594-47.834 53.63-84.621 62.933-12.424 3.14-25.153 5.049-38.556 7.681 17.564 18.348 20.318 40.74 20.006 64.192-.324 24.192-.238 48.391-.251 72.589-.006 11.72 5.11 18.195 14.039 18.574-.006.037 188.723.037 188.723.037V14.67C565.653 6.567 559.087 0 550.99 0z"></path>
  </symbol>
  <symbol xmlns="http://www.w3.org/2000/svg" viewBox="0 0 60.734 60.733" id="facebook">
    <path d="M57.378.001H3.352A3.352 3.352 0 000 3.353v54.026a3.353 3.353 0 003.352 3.354h29.086V37.214h-7.914v-9.167h7.914v-6.76c0-7.843 4.789-12.116 11.787-12.116 3.355 0 6.232.251 7.071.36v8.198l-4.854.002c-3.805 0-4.539 1.809-4.539 4.462v5.851h9.078l-1.187 9.166h-7.892v23.52h15.475a3.355 3.355 0 003.355-3.351V3.351a3.352 3.352 0 00-3.354-3.35z"></path>
  </symbol>
  <symbol xmlns="http://www.w3.org/2000/svg" viewBox="0 0 512 512" id="linkedin">
    <path d="M475.074 0H36.926C16.53 0 0 16.531 0 36.926v438.148C0 495.47 16.531 512 36.926 512h438.148C495.47 512 512 495.469 512 475.074V36.926C512 16.53 495.469 0 475.074 0zM181.61 387h-62.347V199.426h62.347zm-31.172-213.188h-.406c-20.922 0-34.453-14.402-34.453-32.402 0-18.406 13.945-32.41 35.274-32.41 21.328 0 34.453 14.004 34.859 32.41 0 18-13.531 32.403-35.274 32.403zM406.423 387h-62.34V286.652c0-25.218-9.027-42.418-31.586-42.418-17.223 0-27.48 11.602-31.988 22.801-1.649 4.008-2.051 9.61-2.051 15.215V387h-62.344s.817-169.977 0-187.574h62.344v26.558c8.285-12.78 23.11-30.96 56.188-30.96 41.02 0 71.777 26.808 71.777 84.421zm0 0"></path>
  </symbol>
  <symbol xmlns="http://www.w3.org/2000/svg" viewBox="0 0 92.896 92.896" id="logo">
    <path d="M0 51.115v39.046h33.818l-.007-5.524zm59.078 39.053h33.818V51.121l-33.81 33.524zM92.896 2.925L46.547 48.879 0 2.729v39.709l46.547 46.15 46.342-45.947z"></path>
  </symbol>
</svg>